# File created by Blade
# Date/Time:  Wed Jan 21 17:16:23 2015
# Frame Rate: 120.000 fps
#------------------------------------------------------
:FULLY-SPECIFIED
:DEGREES
2076
root 21.554585 4.794188 -13.901020 -210.025410 -24.993454 -211.790357
Spine 60.208510 19.299171 -16.092875
Head 61.150552 76.222492 10.026927
LeftShoulder -22.452540 -21.130019 -4.097829
LeftArm -13.329359 22.500118 -43.689014
LeftForeArm 14.403168 -0.000000 74.728720
LeftHand -7.403032 -0.000000 -14.831285
LeftHandThumb1 -26.253704 0.000000 33.147579
RightShoulder 0.245420 -21.197049 -13.273669
RightArm 1.718003 -46.619146 83.876710
RightForeArm -40.136903 0.000000 46.271592
RightHand -14.953009 -0.000000 -19.346049
RightHandThumb1 -24.326973 -0.000000 -32.862282
LeftUpLeg -87.752663 14.821089 -20.682727
LeftLeg 150.031966 -0.000000 -0.000000
LeftFoot -36.544716 26.300667 -12.005894
LeftToeBase 21.632632 -0.000000 -0.000000
RightUpLeg -98.832996 -25.311065 37.177185
RightLeg 125.718580 -0.000000 -0.000000
RightFoot 24.588122 -7.262336 3.185835
RightToeBase 37.260697 -0.000000 -0.000000
2077
root 21.526965 4.787424 -13.869643 -210.377624 -25.044997 -211.636197
Spine 60.343260 19.412044 -15.832957
Head 61.836113 76.036262 10.732464
LeftShoulder -22.721108 -20.599329 -4.018192
LeftArm -13.606699 23.565530 -43.727112
LeftForeArm 15.245182 0.000000 74.260323
LeftHand -7.769779 -0.000000 -15.063203
LeftHandThumb1 -26.253704 0.000000 33.147579
RightShoulder -0.075986 -21.723540 -13.213380
RightArm 2.188345 -46.356007 83.169312
RightForeArm -40.491269 -0.000000 46.612968
RightHand -14.270819 -0.000000 -18.910323
RightHandThumb1 -24.326973 -0.000000 -32.862282
LeftUpLeg -87.642809 14.741678 -20.780731
LeftLeg 150.032923 -0.000000 -0.000000
LeftFoot -36.450308 26.570774 -11.957091
LeftToeBase 21.615693 -0.000000 -0.000000
RightUpLeg -98.698911 -25.298937 36.988832
RightLeg 125.718952 -0.000000 -0.000000
RightFoot 24.657490 -7.297530 3.383700
RightToeBase 37.679088 -0.000000 -0.000000
2078
root 21.504147 4.779988 -13.837859 -210.705203 -25.088668 -211.482688
Spine 60.456832 19.534770 -15.646936
Head 61.816787 75.854056 10.824015
LeftShoulder -22.981956 -20.228849 -3.873339
LeftArm -14.097597 24.805379 -43.862953
LeftForeArm 15.754418 -0.000000 73.890185
LeftHand -8.191656 -0.000000 -14.958118
LeftHandThumb1 -26.253704 0.000000 33.147579
RightShoulder -0.439057 -21.910404 -12.994971
RightArm 2.390717 -46.441157 82.541714
RightForeArm -40.789959 -0.000000 46.844401
RightHand -13.839685 -0.000000 -18.901401
RightHandThumb1 -24.326973 -0.000000 -32.862282
LeftUpLeg -87.560940 14.665423 -20.863587
LeftLeg 150.030619 -0.000000 -0.000000
LeftFoot -36.343045 26.817501 -11.914208
LeftToeBase 21.555312 -0.000000 -0.000000
RightUpLeg -98.572219 -25.244732 36.771049
RightLeg 125.687720 -0.000000 -0.000000
RightFoot 24.939495 -7.504828 3.950947
RightToeBase 37.239434 -0.000000 -0.000000
2079
root 21.482178 4.770418 -13.803667 -211.018850 -25.123748 -211.323520
Spine 60.514601 19.625652 -15.477301
Head 62.274818 75.653125 11.339666
LeftShoulder -23.163850 -19.763150 -3.783646
LeftArm -14.568275 25.796992 -44.080115
LeftForeArm 15.948250 -0.000000 73.497631
LeftHand -8.621383 -0.000000 -15.123534
LeftHandThumb1 -26.253704 0.000000 33.147579
RightShoulder -0.707132 -21.938466 -12.808400
RightArm 2.423953 -46.565513 82.087704
RightForeArm -40.847879 0.000000 47.001633
RightHand -13.517976 -0.000000 -18.981433
RightHandThumb1 -24.326973 -0.000000 -32.862282
LeftUpLeg -87.511292 14.535944 -20.929107
LeftLeg 150.025588 -0.000000 -0.000000
LeftFoot -36.230955 27.069100 -11.938566
LeftToeBase 21.524090 -0.000000 -0.000000
RightUpLeg -98.440645 -25.148195 36.578810
RightLeg 125.677394 -0.000000 -0.000000
RightFoot 24.850436 -7.199403 3.899998
RightToeBase 37.776822 -0.000000 -0.000000
2080
root 21.463750 4.763064 -13.772027 -211.347860 -25.105528 -211.161589
Spine 60.546565 19.745847 -15.301787
Head 62.859912 75.427391 11.981685
LeftShoulder -23.244231 -19.393623 -3.687305
LeftArm -15.296176 26.737574 -44.456371
LeftForeArm 16.299270 -0.000000 73.179439
LeftHand -9.031867 -0.000000 -15.220954
LeftHandThumb1 -26.253704 0.000000 33.147579
RightShoulder -0.895660 -22.053388 -12.639270
RightArm 2.595634 -46.683846 81.522694
RightForeArm -40.976974 -0.000000 47.234793
RightHand -13.301616 0.000000 -18.853450
RightHandThumb1 -24.326973 -0.000000 -32.862282
LeftUpLeg -87.454497 14.520965 -20.948830
LeftLeg 150.032989 -0.000000 -0.000000
LeftFoot -36.100119 27.247379 -11.961966
LeftToeBase 21.401793 -0.000000 -0.000000
RightUpLeg -98.217708 -25.043239 36.360628
RightLeg 125.667802 -0.000000 -0.000000
RightFoot 24.650157 -6.739648 3.776700
RightToeBase 38.169859 -0.000000 -0.000000
2081
root 21.444783 4.754030 -13.735240 -211.620531 -25.184277 -211.054275
Spine 60.567373 19.847541 -15.229502
Head 63.009979 75.104477 12.251466
LeftShoulder -23.295753 -18.942020 -3.549489
LeftArm -15.942433 27.565163 -44.945323
LeftForeArm 16.651123 -0.000000 72.871823
LeftHand -9.400371 -0.000000 -15.489769
LeftHandThumb1 -26.253704 0.000000 33.147579
RightShoulder -1.056687 -22.065229 -12.474594
RightArm 2.555926 -46.709226 81.175251
RightForeArm -41.176278 -0.000000 47.501982
RightHand -13.114460 0.000000 -18.658131
RightHandThumb1 -24.326973 -0.000000 -32.862282
LeftUpLeg -87.408491 14.397640 -21.050026
LeftLeg 150.006152 -0.000000 -0.000000
LeftFoot -35.924271 27.438496 -11.956013
LeftToeBase 21.302604 -0.000000 -0.000000
RightUpLeg -98.103200 -24.942865 36.091766
RightLeg 125.667307 -0.000000 -0.000000
RightFoot 24.480712 -6.383627 3.741601
RightToeBase 38.370103 -0.000000 -0.000000
